<svg xmlns="http://www.w3.org/2000/svg" viewBox="0 0 43.51 60.5"><defs><style>.cls-1{fill:#707070;}</style></defs><title>Æble</title><g id="Lag_2" data-name="Lag 2"><g id="Layer_1" data-name="Layer 1"><path class="cls-1" d="M22.78,17.05c.75-2.55,3.11-6.7,10.68-7.54v0a1.35,1.35,0,0,0-.15-2.69.8.8,0,0,0-.15,0v0a16.55,16.55,0,0,0-9,3.44C23.06,6.21,19.64,0,12.92,0H11.74l-.17,1.17a10.72,10.72,0,0,0,2.18,7.71c1.79,2.2,4.53,3.51,8.12,3.92A12.77,12.77,0,0,0,20,17.08a21.88,21.88,0,1,0,2.78,0ZM15.87,7.18a7.55,7.55,0,0,1-1.62-4.35c4.12.72,6.14,4.73,7,7.15A8.66,8.66,0,0,1,15.87,7.18Zm5.88,50.6a19,19,0,1,1,19-19A19.06,19.06,0,0,1,21.75,57.78Z"/><path class="cls-1" d="M35.43,32h0a1.36,1.36,0,0,0-2.19,1.61h0c.2.28,4.77,6.84-3.23,14.21l0,0a1.35,1.35,0,0,0-.19,1.79,1.37,1.37,0,0,0,1.9.29s.06-.08.1-.11h0C41.68,40.73,35.49,32.06,35.43,32Z"/><path class="cls-1" d="M32.76,29.65a1.36,1.36,0,1,0-1.91-.29A1.37,1.37,0,0,0,32.76,29.65Z"/></g></g></svg>