<svg id="Capa_1" data-name="Capa 1" xmlns="http://www.w3.org/2000/svg" viewBox="0 0 512 183.34"><defs><style>.cls-1{fill:#707070;}</style></defs><title>butter</title><path class="cls-1" d="M488.47,260.52H476l-72.68-67.27a23.52,23.52,0,0,0-33.25,1.28l-8.3,9-12.2-34.19a7.5,7.5,0,0,0-9.59-4.54l-27.73,9.89v-2.83a7.5,7.5,0,0,0-7.5-7.5H71.63A23.56,23.56,0,0,0,48.1,187.86v72.66H23.53a23.54,23.54,0,0,0,0,47.07h2.94l8.1,20.25a31.41,31.41,0,0,0,29.29,19.83H448.14a31.41,31.41,0,0,0,29.29-19.83l8.1-20.25h2.94a23.54,23.54,0,0,0,0-47.07Zm-107.39-55.8a8.52,8.52,0,0,1,12.05-.46l60.79,56.26H417l-47.16-43.65Zm13.84,55.8H382.08c-.06-.2-.12-.41-.19-.61l-6.1-17.09Zm-57-79.11,28.22,79.11H339.55l-25.22-70.68Zm-14.33,79.11H312.25V228.64ZM63.1,187.86a8.54,8.54,0,0,1,8.53-8.53H297.25v81.19H63.1ZM488.47,292.59H95.68a7.5,7.5,0,0,0,0,15H469.37l-5.87,14.68a16.47,16.47,0,0,1-15.36,10.4H63.86a16.47,16.47,0,0,1-15.36-10.4l-5.87-14.68h21a7.5,7.5,0,1,0,0-15H23.53a8.54,8.54,0,0,1,0-17.07H488.47a8.54,8.54,0,0,1,0,17.07Z" transform="translate(0 -164.33)"/></svg>