<svg id="Capa_1" data-name="Capa 1" xmlns="http://www.w3.org/2000/svg" viewBox="0 0 460.01 337.6"><defs><style>.cls-1{fill:#707070;}</style></defs><title>egg</title><path class="cls-1" d="M330.4,61.2c-38.4,0-76.8,43.2-100,89.6-25.6-51.2-64.8-89.6-100-89.6C70.4,61.2,0,171.6,0,264.4c0,67.2,44.8,134.4,129.6,134.4,44.8,0,78.4-18.4,100-46.4,28,33.6,69.6,46.4,100.8,46.4,84.8,0,129.6-68,129.6-134.4C460.8,171.6,390.4,61.2,330.4,61.2Zm-200,321.6C76,382.8,16.8,346,16.8,264.4c0-84,62.4-187.2,113.6-187.2,32.8,0,70.4,42.4,92.8,95.2v.8c12.8,29.6,20.8,61.6,20.8,92C244,346,184.8,382.8,130.4,382.8Zm200,0c-28.8,0-67.2-12-91.2-44,13.6-22.4,20-48.8,20-74.4,0-31.2-8-64.8-20.8-95.2,24.8-54.4,61.6-92.8,92-92.8C381.6,76.4,444,179.6,444,263.6,444.8,346,385.6,382.8,330.4,382.8Z" transform="translate(0 -61.2)"/><path class="cls-1" d="M60,193.2c-4-1.6-8.8.8-10.4,4.8-.8,2.4-23.2,60.8-4.8,101.6a8.4,8.4,0,0,0,7.2,4c.8,0,2.4,0,3.2-.8,4-1.6,5.6-6.4,4-10.4-16-34.4,4.8-88,5.6-88.8C66.4,199.6,64,194.8,60,193.2Z" transform="translate(0 -61.2)"/><path class="cls-1" d="M319.2,106c-3.2-4-8-4-11.2-.8-1.6,1.6-46.4,46.4-45.6,91.2,0,4,4,8,8,8a8,8,0,0,0,8-8c-.8-37.6,40-79.2,40.8-79.2A7.73,7.73,0,0,0,319.2,106Z" transform="translate(0 -61.2)"/></svg>