<svg id="Layer_1" data-name="Layer 1" xmlns="http://www.w3.org/2000/svg" viewBox="0 0 510.67 512"><defs><style>.cls-1{fill:#707070;}</style></defs><title>hen</title><path class="cls-1" d="M326.32,193.28l-1.18-4.49a9,9,0,1,0-17.41,4.57l1.18,4.48A125.47,125.47,0,0,1,219.34,351a126.71,126.71,0,0,1-26,4c20.26-9.62,44.23-25,59.64-48.09a9,9,0,1,0-15-10c-23.65,35.47-73.41,50.71-84.07,53.62a126.43,126.43,0,0,1-58-35.2c3.79.15,8,.25,12.48.25,22.56,0,53.2-2.36,81.32-12.4a9,9,0,0,0-6-17c-40.46,14.45-88.44,11.4-102.42,10.1A125.66,125.66,0,0,1,69.41,272a268.11,268.11,0,0,0,32,5.32,9,9,0,1,0,1.88-17.9,251.89,251.89,0,0,1-44.39-8.75A9,9,0,0,0,47.6,261.27c.42,1.84.78,3.35,1.15,4.76A143.66,143.66,0,0,0,187.3,373.19a144.62,144.62,0,0,0,36.61-4.75A143.48,143.48,0,0,0,326.32,193.28Z" transform="translate(-0.67 0)"/><path class="cls-1" d="M261.32,234.28a9,9,0,0,0-12.18-3.67,253.33,253.33,0,0,1-55.63,21.83,252.74,252.74,0,0,1-61.38,8.29,9,9,0,0,0,.1,18h.1a271.6,271.6,0,0,0,65.74-8.88,271.78,271.78,0,0,0,59.58-23.39A9,9,0,0,0,261.32,234.28Z" transform="translate(-0.67 0)"/><path class="cls-1" d="M511,121.7c-6-23-29.88-32.29-42.32-35.65A8.65,8.65,0,0,0,466.8,84a53.75,53.75,0,0,0,4-9.37c4.65-14.78,5.54-29.92,2.5-42.62-3.44-14.33-11.43-24.14-22.5-27.63-9.4-3-19.75-.83-29.36,5.86C414.94,3.56,407.16,0,398.9,0s-16,3.56-22.57,10.2c-9.6-6.69-19.95-8.83-29.34-5.86-17.1,5.38-26.66,26.48-23.79,52.51a9,9,0,0,0,17.9-2c-1.84-16.7,2.91-30.73,11.31-33.37,5.23-1.66,12.28,1.28,18.82,7.86a9,9,0,0,0,14-1.49c2.37-3.69,7.3-9.88,13.71-9.88s11.35,6.19,13.72,9.88a9,9,0,0,0,13.95,1.49c6.66-6.68,13.52-9.54,18.85-7.86,4.74,1.5,8.54,6.84,10.41,14.66,2,8.27,1.62,18.55-1,28.75A71.19,71.19,0,0,0,368,47.36c-6.81,3.48-13.81,7.61-18.93,14.14-19,24.24-63.26,60.67-125.55,83.6-45.12,16.6-113.2,30.71-185.8,6.69,7.18-12.8,21.05-36,34.08-49A9,9,0,0,0,59.11,90c-12.32,12.32-24.75,31.75-32.92,45.71-3.69-11-7.52-25.62-7.52-39.34a9,9,0,1,0-18,0c0,25.06,10.37,51.4,14.43,60.76A222.26,222.26,0,0,0,147,440a224.48,224.48,0,0,0,69.27,13.94L229.53,494h-4.88a9,9,0,0,0,0,18h50.22a9,9,0,1,0,0-18H248.5l-13.31-40.16a218.57,218.57,0,0,0,25.37-2.63,222.42,222.42,0,0,0,101.11-44.33,9,9,0,1,0-11.1-14.17c-56.26,44.08-130,55.43-197.32,30.37A204.32,204.32,0,0,1,30.3,168.31a273.39,273.39,0,0,0,88.26,14.39C229.26,182.7,327,119,363.29,72.6c3-3.79,8-6.67,12.95-9.22a53.15,53.15,0,0,1,71.45,23.06,50.73,50.73,0,0,1-23.79,69.15l-17.72,8.24a9,9,0,0,0-3.52,13.41c23.15,32.2,29.61,71.62,18.2,111-1.45,5-3.12,10-4.95,14.93a204,204,0,0,1-43.5,69.69,9,9,0,0,0,13,12.42,222.19,222.19,0,0,0,47.33-75.81c2-5.32,3.8-10.78,5.37-16.22,11.94-41.22,6.63-82.54-14.88-117.52l8.21-3.82a68.2,68.2,0,0,0,28-23.78,67.1,67.1,0,0,0,8.29.54c28.06,0,41.34-18.65,42-19.57A9,9,0,0,0,511,121.7ZM468,130.63a68.58,68.58,0,0,0,3.25-24.87c7.61,2.93,16.59,8,20.78,16.21C488.07,125.45,480.25,130.53,468,130.63Z" transform="translate(-0.67 0)"/><circle class="cls-1" cx="402.41" cy="96.2" r="9"/></svg>