<svg id="Capa_1" data-name="Capa 1" xmlns="http://www.w3.org/2000/svg" viewBox="0 0 311.55 512"><defs><style>.cls-1{fill:#707070;}</style></defs><title>milk</title><path class="cls-1" d="M420.51,161.51a8.55,8.55,0,0,0-.76-2.8L370,52.94V27.53C370,12.35,359.23,0,346.06,0H187.59C174.42,0,163.7,12.35,163.7,27.53V52.8L109.9,158.51a8.5,8.5,0,0,0-.9,3.8V484.47c0,15.18,10.71,27.53,23.89,27.53H396.66c13.17,0,23.89-12.35,23.89-27.53V162.31c0-.27,0-.53,0-.8ZM407.51,393H315.24V260h92.27Zm-33.1-223.12h33.1V245H315.24V169.83h33.1c3.6,0,6.52-3.37,6.52-7.52s-2.92-7.51-6.52-7.51H320.11l43.1-84.67,39.86,84.67H374.41c-3.6,0-6.51,3.36-6.51,7.51s2.91,7.52,6.51,7.52Zm-252.37,0H302.21V245H122ZM174,62.36h34.86c3.6,0,6.52-3.37,6.52-7.52s-2.92-7.51-6.52-7.51H176.74V27.54c0-6.9,4.87-12.51,10.85-12.51H346.06c6,0,10.85,5.61,10.85,12.51V47.33h-122c-3.6,0-6.52,3.36-6.52,7.52s2.92,7.51,6.52,7.51H352.05L305,154.8H126.9ZM122,484.46V408H243.91c3.6,0,6.52-3.37,6.52-7.52s-2.92-7.51-6.52-7.51H122V260H302.21V393H270c-3.6,0-6.52,3.36-6.52,7.51S266.39,408,270,408h32.22v89H132.88c-6,0-10.84-5.61-10.84-12.51ZM396.66,497H315.24V408h92.27v76.49C407.51,491.36,402.64,497,396.66,497Z" transform="translate(-109 0)"/></svg>