<svg xmlns="http://www.w3.org/2000/svg" viewBox="0 0 27.6 47.53"><defs><style>.cls-1{fill:#4e4c4c;}.cls-2{fill:#f6f6f6;}</style></defs><title>fridge-icon</title><g id="Lag_2" data-name="Lag 2"><g id="Lag_1-2" data-name="Lag 1"><rect class="cls-1" width="27.6" height="47.53" rx="2.89"/><path class="cls-2" d="M21.07,39.06h0a1,1,0,0,1-1-1V20.64a1,1,0,0,1,1-1h0a1,1,0,0,1,1,1V38A1,1,0,0,1,21.07,39.06Z"/><path class="cls-2" d="M21.07,12.05h0a1,1,0,0,1-1-1V6.63a1,1,0,0,1,1-1h0a1,1,0,0,1,1,1V11A1,1,0,0,1,21.07,12.05Z"/><rect class="cls-2" y="15.38" width="27.6" height="1.82"/></g></g></svg>