<svg xmlns="http://www.w3.org/2000/svg" viewBox="0 0 47.53 44.94"><defs><style>.cls-1{fill:#515151;}.cls-2{fill:none;stroke:#f6f6f6;stroke-miterlimit:10;stroke-width:2px;}.cls-3{fill:#fff;}</style></defs><title>hat-icon</title><g id="Lag_2" data-name="Lag 2"><g id="Lag_1-2" data-name="Lag 1"><path class="cls-1" d="M10,24.94v20H37.57V25.54a13.22,13.22,0,0,0,2.27-.5,11.75,11.75,0,0,0,3.77-2.1,9.46,9.46,0,0,0,3.68-5.4,11.49,11.49,0,0,0-.29-5.7,10.45,10.45,0,0,0-3.3-5.3,8.29,8.29,0,0,0-5.47-2.3c-3.39,0-5.56,2.5-6.12,3a10.2,10.2,0,0,0-1.8-4,7.75,7.75,0,0,0-4.9-3,7.42,7.42,0,0,0-5.09.5,8.46,8.46,0,0,0-4,3.8A7.89,7.89,0,0,0,15.41,7a8.55,8.55,0,0,0-3.3-2.2,9,9,0,0,0-7.35.7,10,10,0,0,0-4.24,5.4,12.63,12.63,0,0,0,.37,8.2A9.58,9.58,0,0,0,10,24.94Z"/><line class="cls-2" x1="9.85" y1="34.44" x2="37.48" y2="34.44"/><path class="cls-3" d="M16.83,24.44a.93.93,0,0,1-1.42-.2,14.42,14.42,0,0,1-2.07-4.6,14.08,14.08,0,0,1-.28-4.9,1,1,0,0,1,1.13-.9h0a1,1,0,0,1,.75,1.1,12.64,12.64,0,0,0,.19,4.2,12.63,12.63,0,0,0,1.79,4,.88.88,0,0,1-.09,1.3Z"/><path class="cls-3" d="M31,24.44h0a1,1,0,0,1-.18-1.3,11.9,11.9,0,0,0,1.79-4,12.91,12.91,0,0,0,.19-4.2,1,1,0,0,1,.75-1.1h0a1,1,0,0,1,1.13.9,14.22,14.22,0,0,1-.28,4.9,13.33,13.33,0,0,1-2.08,4.6A.82.82,0,0,1,31,24.44Z"/><path class="cls-3" d="M23.9,24.44h0a.92.92,0,0,1-.94-1v-9.1a.92.92,0,0,1,.94-1h0a.91.91,0,0,1,.94,1v9.1A.91.91,0,0,1,23.9,24.44Z"/></g></g></svg>