<svg xmlns="http://www.w3.org/2000/svg" viewBox="0 0 39.55 43.55"><defs><style>.cls-1{fill:#fff;stroke:#515151;stroke-miterlimit:10;stroke-width:2px;}.cls-2{fill:#515151;}</style></defs><title>indkøbsliste</title><g id="Lag_2" data-name="Lag 2"><g id="Lag_1-2" data-name="Lag 1"><path class="cls-1" d="M14,42.38c-6.25.23-10.83.23-11.68,0a1.89,1.89,0,0,1-.9-.54A2.06,2.06,0,0,1,1,40.76C1,40.23,1,25.29,1,5.12a5.19,5.19,0,0,1,.9-2.4A4.43,4.43,0,0,1,4,1.09c15.59.19,26.49.22,28.76-.05a5.52,5.52,0,0,1,2.66.34A4.24,4.24,0,0,1,37.9,3.49,4.32,4.32,0,0,1,38.25,5a46,46,0,0,1,.22,7.44A3.43,3.43,0,0,1,38,14.26a2.75,2.75,0,0,1-1.46,1.09H30.08V42.54Z"/><path class="cls-1" d="M30.08,15.35c0-3.38,0-6.76,0-10.14A5.79,5.79,0,0,1,30.92,3,5.16,5.16,0,0,1,32,1.82L32.78,1"/><path class="cls-2" d="M24.47,10H6.12a1,1,0,0,1-.89-1h0a1,1,0,0,1,.89-1H24.47a1,1,0,0,1,.9,1h0A1,1,0,0,1,24.47,10Z"/><path class="cls-2" d="M24.47,16.88H6.12a1,1,0,0,1-.89-1h0a1,1,0,0,1,.89-1H24.47a1,1,0,0,1,.9,1h0A1,1,0,0,1,24.47,16.88Z"/><path class="cls-2" d="M24.59,23.44H6.23a1,1,0,0,1-.89-1h0a1,1,0,0,1,.89-1H24.59a1,1,0,0,1,.89,1h0A1,1,0,0,1,24.59,23.44Z"/><path class="cls-2" d="M24.59,30.34H6.23a1,1,0,0,1-.89-1h0a1,1,0,0,1,.89-1H24.59a1,1,0,0,1,.89,1h0A1,1,0,0,1,24.59,30.34Z"/><path class="cls-2" d="M24.59,37.23H6.23a1,1,0,0,1-.89-1h0a1,1,0,0,1,.89-1H24.59a1,1,0,0,1,.89,1h0A1,1,0,0,1,24.59,37.23Z"/></g></g></svg>