<svg id="Lag_1" data-name="Lag 1" xmlns="http://www.w3.org/2000/svg" viewBox="0 0 410.97 510"><defs><style>.cls-1{fill:none;}.cls-2{fill:#717070;}.cls-3{fill:#fff;}</style></defs><title>indkoebsseddel</title><g id="Rectangle_63" data-name="Rectangle 63"><path class="cls-1" d="M79.81,174.75H465.64c6.94,0,12.57,4.48,12.57,10v481c0,5.52-5.63,10-12.57,10H79.81c-6.94,0-12.57-4.48-12.57-10v-481C67.24,179.23,72.87,174.75,79.81,174.75Z" transform="translate(-67.24 -165.75)"/><path class="cls-2" d="M465.64,675.75H79.81c-6.93,0-12.57-4.49-12.57-10v-481c0-5.51,5.64-10,12.57-10H465.64c6.93,0,12.57,4.49,12.57,10v481C478.21,671.26,472.57,675.75,465.64,675.75Zm-385.83-499c-5.55,0-10.06,3.59-10.06,8v481c0,4.41,4.51,8,10.06,8H465.64c5.54,0,10.05-3.59,10.05-8v-481c0-4.41-4.51-8-10.05-8Z" transform="translate(-67.24 -165.75)"/></g><g id="Rectangle_65" data-name="Rectangle 65"><path class="cls-2" d="M111.23,188.75h7.54c2.08,0,3.77,1.34,3.77,3h0c0,1.66-1.69,3-3.77,3h-7.54c-2.09,0-3.77-1.34-3.77-3h0C107.46,190.09,109.14,188.75,111.23,188.75Z" transform="translate(-67.24 -165.75)"/><path class="cls-2" d="M118.77,194.75h-7.54c-2.08,0-3.77-1.35-3.77-3s1.69-3,3.77-3h7.54c2.08,0,3.77,1.35,3.77,3S120.85,194.75,118.77,194.75Zm-7.54-5a2.05,2.05,0,1,0,0,4h7.54a2.05,2.05,0,1,0,0-4Z" transform="translate(-67.24 -165.75)"/></g><g id="Rectangle_64" data-name="Rectangle 64"><path class="cls-3" d="M115,165.75h0c2.08,0,3.77,1.34,3.77,3v20c0,1.66-1.69,3-3.77,3h0c-2.09,0-3.77-1.34-3.77-3v-20C111.23,167.09,112.91,165.75,115,165.75Z" transform="translate(-67.24 -165.75)"/><path class="cls-2" d="M115,191.75c-2.08,0-3.77-1.35-3.77-3v-20c0-1.65,1.69-3,3.77-3s3.77,1.35,3.77,3v20C118.77,190.4,117.08,191.75,115,191.75Zm0-25a2.31,2.31,0,0,0-2.52,2v20a2.58,2.58,0,0,0,5,0v-20A2.31,2.31,0,0,0,115,166.75Z" transform="translate(-67.24 -165.75)"/></g><g id="Rectangle_66" data-name="Rectangle 66"><path class="cls-2" d="M132.59,188.75h7.54c2.08,0,3.77,1.34,3.77,3h0c0,1.66-1.69,3-3.77,3h-7.54c-2.08,0-3.77-1.34-3.77-3h0C128.82,190.09,130.51,188.75,132.59,188.75Z" transform="translate(-67.24 -165.75)"/><path class="cls-2" d="M140.13,194.75h-7.54c-2.08,0-3.77-1.35-3.77-3s1.69-3,3.77-3h7.54c2.08,0,3.77,1.35,3.77,3S142.21,194.75,140.13,194.75Zm-7.54-5a2.05,2.05,0,1,0,0,4h7.54a2.05,2.05,0,1,0,0-4Z" transform="translate(-67.24 -165.75)"/></g><g id="Rectangle_67" data-name="Rectangle 67"><path class="cls-3" d="M136.36,165.75h0c2.08,0,3.77,1.34,3.77,3v20c0,1.66-1.69,3-3.77,3h0c-2.08,0-3.77-1.34-3.77-3v-20C132.59,167.09,134.28,165.75,136.36,165.75Z" transform="translate(-67.24 -165.75)"/><path class="cls-2" d="M136.36,191.75c-2.08,0-3.77-1.35-3.77-3v-20c0-1.65,1.69-3,3.77-3s3.77,1.35,3.77,3v20C140.13,190.4,138.44,191.75,136.36,191.75Zm0-25a2.31,2.31,0,0,0-2.51,2v20a2.58,2.58,0,0,0,5,0v-20A2.31,2.31,0,0,0,136.36,166.75Z" transform="translate(-67.24 -165.75)"/></g><g id="Rectangle_68" data-name="Rectangle 68"><path class="cls-2" d="M154,188.75h7.54c2.08,0,3.77,1.34,3.77,3h0c0,1.66-1.69,3-3.77,3H154c-2.09,0-3.77-1.34-3.77-3h0C150.19,190.09,151.87,188.75,154,188.75Z" transform="translate(-67.24 -165.75)"/><path class="cls-2" d="M161.5,194.75H154c-2.08,0-3.77-1.35-3.77-3s1.69-3,3.77-3h7.54c2.08,0,3.77,1.35,3.77,3S163.58,194.75,161.5,194.75Zm-7.54-5a2.05,2.05,0,1,0,0,4h7.54a2.05,2.05,0,1,0,0-4Z" transform="translate(-67.24 -165.75)"/></g><g id="Rectangle_69" data-name="Rectangle 69"><path class="cls-3" d="M157.73,165.75h0c2.08,0,3.77,1.34,3.77,3v20c0,1.66-1.69,3-3.77,3h0c-2.08,0-3.77-1.34-3.77-3v-20C154,167.09,155.65,165.75,157.73,165.75Z" transform="translate(-67.24 -165.75)"/><path class="cls-2" d="M157.73,191.75c-2.08,0-3.77-1.35-3.77-3v-20c0-1.65,1.69-3,3.77-3s3.77,1.35,3.77,3v20C161.5,190.4,159.81,191.75,157.73,191.75Zm0-25a2.31,2.31,0,0,0-2.52,2v20a2.58,2.58,0,0,0,5,0v-20A2.31,2.31,0,0,0,157.73,166.75Z" transform="translate(-67.24 -165.75)"/></g><g id="Rectangle_70" data-name="Rectangle 70"><path class="cls-2" d="M175.32,188.75h7.54c2.09,0,3.77,1.34,3.77,3h0c0,1.66-1.68,3-3.77,3h-7.54c-2.08,0-3.77-1.34-3.77-3h0C171.55,190.09,173.24,188.75,175.32,188.75Z" transform="translate(-67.24 -165.75)"/><path class="cls-2" d="M182.86,194.75h-7.54c-2.08,0-3.77-1.35-3.77-3s1.69-3,3.77-3h7.54c2.08,0,3.77,1.35,3.77,3S184.94,194.75,182.86,194.75Zm-7.54-5a2.05,2.05,0,1,0,0,4h7.54a2.05,2.05,0,1,0,0-4Z" transform="translate(-67.24 -165.75)"/></g><g id="Rectangle_71" data-name="Rectangle 71"><path class="cls-3" d="M179.09,165.75h0c2.09,0,3.77,1.34,3.77,3v20c0,1.66-1.68,3-3.77,3h0c-2.08,0-3.77-1.34-3.77-3v-20C175.32,167.09,177,165.75,179.09,165.75Z" transform="translate(-67.24 -165.75)"/><path class="cls-2" d="M179.09,191.75c-2.08,0-3.77-1.35-3.77-3v-20c0-1.65,1.69-3,3.77-3s3.77,1.35,3.77,3v20C182.86,190.4,181.17,191.75,179.09,191.75Zm0-25a2.31,2.31,0,0,0-2.51,2v20a2.58,2.58,0,0,0,5,0v-20A2.31,2.31,0,0,0,179.09,166.75Z" transform="translate(-67.24 -165.75)"/></g><g id="Rectangle_72" data-name="Rectangle 72"><path class="cls-2" d="M196.69,188.75h7.54c2.08,0,3.77,1.34,3.77,3h0c0,1.66-1.69,3-3.77,3h-7.54c-2.08,0-3.77-1.34-3.77-3h0C192.92,190.09,194.61,188.75,196.69,188.75Z" transform="translate(-67.24 -165.75)"/><path class="cls-2" d="M204.23,194.75h-7.54c-2.08,0-3.77-1.35-3.77-3s1.69-3,3.77-3h7.54c2.08,0,3.77,1.35,3.77,3S206.31,194.75,204.23,194.75Zm-7.54-5a2.05,2.05,0,1,0,0,4h7.54a2.05,2.05,0,1,0,0-4Z" transform="translate(-67.24 -165.75)"/></g><g id="Rectangle_73" data-name="Rectangle 73"><path class="cls-3" d="M200.46,165.75h0c2.08,0,3.77,1.34,3.77,3v20c0,1.66-1.69,3-3.77,3h0c-2.08,0-3.77-1.34-3.77-3v-20C196.69,167.09,198.38,165.75,200.46,165.75Z" transform="translate(-67.24 -165.75)"/><path class="cls-2" d="M200.46,191.75c-2.08,0-3.77-1.35-3.77-3v-20c0-1.65,1.69-3,3.77-3s3.77,1.35,3.77,3v20C204.23,190.4,202.54,191.75,200.46,191.75Zm0-25a2.31,2.31,0,0,0-2.52,2v20a2.58,2.58,0,0,0,5,0v-20A2.31,2.31,0,0,0,200.46,166.75Z" transform="translate(-67.24 -165.75)"/></g><g id="Rectangle_74" data-name="Rectangle 74"><path class="cls-2" d="M218.05,188.75h7.54c2.09,0,3.77,1.34,3.77,3h0c0,1.66-1.68,3-3.77,3h-7.54c-2.08,0-3.77-1.34-3.77-3h0C214.28,190.09,216,188.75,218.05,188.75Z" transform="translate(-67.24 -165.75)"/><path class="cls-2" d="M225.59,194.75h-7.54c-2.08,0-3.77-1.35-3.77-3s1.69-3,3.77-3h7.54c2.08,0,3.77,1.35,3.77,3S227.67,194.75,225.59,194.75Zm-7.54-5a2.05,2.05,0,1,0,0,4h7.54a2.05,2.05,0,1,0,0-4Z" transform="translate(-67.24 -165.75)"/></g><g id="Rectangle_75" data-name="Rectangle 75"><path class="cls-3" d="M221.82,165.75h0c2.09,0,3.77,1.34,3.77,3v20c0,1.66-1.68,3-3.77,3h0c-2.08,0-3.77-1.34-3.77-3v-20C218.05,167.09,219.74,165.75,221.82,165.75Z" transform="translate(-67.24 -165.75)"/><path class="cls-2" d="M221.82,191.75c-2.08,0-3.77-1.35-3.77-3v-20c0-1.65,1.69-3,3.77-3s3.77,1.35,3.77,3v20C225.59,190.4,223.9,191.75,221.82,191.75Zm0-25a2.31,2.31,0,0,0-2.51,2v20a2.58,2.58,0,0,0,5,0v-20A2.31,2.31,0,0,0,221.82,166.75Z" transform="translate(-67.24 -165.75)"/></g><g id="Rectangle_76" data-name="Rectangle 76"><path class="cls-2" d="M239.42,188.75H247c2.08,0,3.77,1.34,3.77,3h0c0,1.66-1.69,3-3.77,3h-7.54c-2.08,0-3.77-1.34-3.77-3h0C235.65,190.09,237.34,188.75,239.42,188.75Z" transform="translate(-67.24 -165.75)"/><path class="cls-2" d="M247,194.75h-7.54c-2.08,0-3.77-1.35-3.77-3s1.69-3,3.77-3H247c2.08,0,3.77,1.35,3.77,3S249,194.75,247,194.75Zm-7.54-5a2.05,2.05,0,1,0,0,4H247a2.05,2.05,0,1,0,0-4Z" transform="translate(-67.24 -165.75)"/></g><g id="Rectangle_77" data-name="Rectangle 77"><path class="cls-3" d="M243.19,165.75h0c2.08,0,3.77,1.34,3.77,3v20c0,1.66-1.69,3-3.77,3h0c-2.08,0-3.77-1.34-3.77-3v-20C239.42,167.09,241.11,165.75,243.19,165.75Z" transform="translate(-67.24 -165.75)"/><path class="cls-2" d="M243.19,191.75c-2.08,0-3.77-1.35-3.77-3v-20c0-1.65,1.69-3,3.77-3s3.77,1.35,3.77,3v20C247,190.4,245.27,191.75,243.19,191.75Zm0-25a2.3,2.3,0,0,0-2.51,2v20a2.58,2.58,0,0,0,5,0v-20A2.3,2.3,0,0,0,243.19,166.75Z" transform="translate(-67.24 -165.75)"/></g><g id="Rectangle_78" data-name="Rectangle 78"><path class="cls-2" d="M260.78,188.75h7.54c2.09,0,3.77,1.34,3.77,3h0c0,1.66-1.68,3-3.77,3h-7.54c-2.08,0-3.77-1.34-3.77-3h0C257,190.09,258.7,188.75,260.78,188.75Z" transform="translate(-67.24 -165.75)"/><path class="cls-2" d="M268.32,194.75h-7.54c-2.08,0-3.77-1.35-3.77-3s1.69-3,3.77-3h7.54c2.08,0,3.77,1.35,3.77,3S270.4,194.75,268.32,194.75Zm-7.54-5a2.05,2.05,0,1,0,0,4h7.54a2.05,2.05,0,1,0,0-4Z" transform="translate(-67.24 -165.75)"/></g><g id="Rectangle_79" data-name="Rectangle 79"><path class="cls-3" d="M264.55,165.75h0c2.09,0,3.77,1.34,3.77,3v20c0,1.66-1.68,3-3.77,3h0c-2.08,0-3.77-1.34-3.77-3v-20C260.78,167.09,262.47,165.75,264.55,165.75Z" transform="translate(-67.24 -165.75)"/><path class="cls-2" d="M264.55,191.75c-2.07,0-3.77-1.35-3.77-3v-20c0-1.65,1.7-3,3.77-3s3.77,1.35,3.77,3v20C268.32,190.4,266.63,191.75,264.55,191.75Zm0-25a2.31,2.31,0,0,0-2.51,2v20a2.58,2.58,0,0,0,5,0v-20A2.31,2.31,0,0,0,264.55,166.75Z" transform="translate(-67.24 -165.75)"/></g><g id="Rectangle_80" data-name="Rectangle 80"><path class="cls-2" d="M282.15,188.75h7.54c2.08,0,3.77,1.34,3.77,3h0c0,1.66-1.69,3-3.77,3h-7.54c-2.08,0-3.77-1.34-3.77-3h0C278.38,190.09,280.07,188.75,282.15,188.75Z" transform="translate(-67.24 -165.75)"/><path class="cls-2" d="M289.69,194.75h-7.54c-2.08,0-3.77-1.35-3.77-3s1.69-3,3.77-3h7.54c2.08,0,3.77,1.35,3.77,3S291.77,194.75,289.69,194.75Zm-7.54-5a2.05,2.05,0,1,0,0,4h7.54a2.05,2.05,0,1,0,0-4Z" transform="translate(-67.24 -165.75)"/></g><g id="Rectangle_81" data-name="Rectangle 81"><path class="cls-3" d="M285.92,165.75h0c2.08,0,3.77,1.34,3.77,3v20c0,1.66-1.69,3-3.77,3h0c-2.08,0-3.77-1.34-3.77-3v-20C282.15,167.09,283.84,165.75,285.92,165.75Z" transform="translate(-67.24 -165.75)"/><path class="cls-2" d="M285.92,191.75c-2.08,0-3.77-1.35-3.77-3v-20c0-1.65,1.69-3,3.77-3s3.77,1.35,3.77,3v20C289.69,190.4,288,191.75,285.92,191.75Zm0-25a2.3,2.3,0,0,0-2.51,2v20a2.58,2.58,0,0,0,5,0v-20A2.3,2.3,0,0,0,285.92,166.75Z" transform="translate(-67.24 -165.75)"/></g><g id="Rectangle_82" data-name="Rectangle 82"><path class="cls-2" d="M303.51,188.75h7.55c2.08,0,3.77,1.34,3.77,3h0c0,1.66-1.69,3-3.77,3h-7.55c-2.08,0-3.77-1.34-3.77-3h0C299.74,190.09,301.43,188.75,303.51,188.75Z" transform="translate(-67.24 -165.75)"/><path class="cls-2" d="M311.06,194.75h-7.55c-2.07,0-3.77-1.35-3.77-3s1.7-3,3.77-3h7.55c2.07,0,3.77,1.35,3.77,3S313.13,194.75,311.06,194.75Zm-7.55-5a2.05,2.05,0,1,0,0,4h7.55a2.05,2.05,0,1,0,0-4Z" transform="translate(-67.24 -165.75)"/></g><g id="Rectangle_83" data-name="Rectangle 83"><path class="cls-3" d="M307.28,165.75h0c2.09,0,3.78,1.34,3.78,3v20c0,1.66-1.69,3-3.78,3h0c-2.08,0-3.77-1.34-3.77-3v-20C303.51,167.09,305.2,165.75,307.28,165.75Z" transform="translate(-67.24 -165.75)"/><path class="cls-2" d="M307.28,191.75c-2.07,0-3.77-1.35-3.77-3v-20c0-1.65,1.7-3,3.77-3s3.78,1.35,3.78,3v20C311.06,190.4,309.36,191.75,307.28,191.75Zm0-25a2.31,2.31,0,0,0-2.51,2v20a2.58,2.58,0,0,0,5,0v-20A2.31,2.31,0,0,0,307.28,166.75Z" transform="translate(-67.24 -165.75)"/></g><g id="Rectangle_84" data-name="Rectangle 84"><path class="cls-2" d="M324.88,188.75h7.54c2.08,0,3.77,1.34,3.77,3h0c0,1.66-1.69,3-3.77,3h-7.54c-2.08,0-3.77-1.34-3.77-3h0C321.11,190.09,322.8,188.75,324.88,188.75Z" transform="translate(-67.24 -165.75)"/><path class="cls-2" d="M332.42,194.75h-7.54c-2.08,0-3.77-1.35-3.77-3s1.69-3,3.77-3h7.54c2.08,0,3.77,1.35,3.77,3S334.5,194.75,332.42,194.75Zm-7.54-5a2.05,2.05,0,1,0,0,4h7.54a2.05,2.05,0,1,0,0-4Z" transform="translate(-67.24 -165.75)"/></g><g id="Rectangle_85" data-name="Rectangle 85"><path class="cls-3" d="M328.65,165.75h0c2.08,0,3.77,1.34,3.77,3v20c0,1.66-1.69,3-3.77,3h0c-2.08,0-3.77-1.34-3.77-3v-20C324.88,167.09,326.57,165.75,328.65,165.75Z" transform="translate(-67.24 -165.75)"/><path class="cls-2" d="M328.65,191.75c-2.08,0-3.77-1.35-3.77-3v-20c0-1.65,1.69-3,3.77-3s3.77,1.35,3.77,3v20C332.42,190.4,330.73,191.75,328.65,191.75Zm0-25a2.3,2.3,0,0,0-2.51,2v20a2.58,2.58,0,0,0,5,0v-20A2.3,2.3,0,0,0,328.65,166.75Z" transform="translate(-67.24 -165.75)"/></g><g id="Rectangle_86" data-name="Rectangle 86"><path class="cls-2" d="M346.25,188.75h7.54c2.08,0,3.77,1.34,3.77,3h0c0,1.66-1.69,3-3.77,3h-7.54c-2.09,0-3.78-1.34-3.78-3h0C342.47,190.09,344.16,188.75,346.25,188.75Z" transform="translate(-67.24 -165.75)"/><path class="cls-2" d="M353.79,194.75h-7.54c-2.08,0-3.78-1.35-3.78-3s1.7-3,3.78-3h7.54c2.08,0,3.77,1.35,3.77,3S355.87,194.75,353.79,194.75Zm-7.54-5a2.05,2.05,0,1,0,0,4h7.54a2.05,2.05,0,1,0,0-4Z" transform="translate(-67.24 -165.75)"/></g><g id="Rectangle_87" data-name="Rectangle 87"><path class="cls-3" d="M350,165.75h0c2.08,0,3.77,1.34,3.77,3v20c0,1.66-1.69,3-3.77,3h0c-2.09,0-3.77-1.34-3.77-3v-20C346.25,167.09,347.93,165.75,350,165.75Z" transform="translate(-67.24 -165.75)"/><path class="cls-2" d="M350,191.75c-2.08,0-3.77-1.35-3.77-3v-20c0-1.65,1.69-3,3.77-3s3.77,1.35,3.77,3v20C353.79,190.4,352.09,191.75,350,191.75Zm0-25a2.31,2.31,0,0,0-2.52,2v20a2.58,2.58,0,0,0,5,0v-20A2.31,2.31,0,0,0,350,166.75Z" transform="translate(-67.24 -165.75)"/></g><g id="Rectangle_88" data-name="Rectangle 88"><path class="cls-2" d="M367.61,188.75h7.54c2.08,0,3.77,1.34,3.77,3h0c0,1.66-1.69,3-3.77,3h-7.54c-2.08,0-3.77-1.34-3.77-3h0C363.84,190.09,365.53,188.75,367.61,188.75Z" transform="translate(-67.24 -165.75)"/><path class="cls-2" d="M375.15,194.75h-7.54c-2.08,0-3.77-1.35-3.77-3s1.69-3,3.77-3h7.54c2.08,0,3.77,1.35,3.77,3S377.23,194.75,375.15,194.75Zm-7.54-5a2.05,2.05,0,1,0,0,4h7.54a2.05,2.05,0,1,0,0-4Z" transform="translate(-67.24 -165.75)"/></g><g id="Rectangle_89" data-name="Rectangle 89"><path class="cls-3" d="M371.38,165.75h0c2.08,0,3.77,1.34,3.77,3v20c0,1.66-1.69,3-3.77,3h0c-2.08,0-3.77-1.34-3.77-3v-20C367.61,167.09,369.3,165.75,371.38,165.75Z" transform="translate(-67.24 -165.75)"/><path class="cls-2" d="M371.38,191.75c-2.08,0-3.77-1.35-3.77-3v-20c0-1.65,1.69-3,3.77-3s3.77,1.35,3.77,3v20C375.15,190.4,373.46,191.75,371.38,191.75Zm0-25a2.31,2.31,0,0,0-2.51,2v20a2.58,2.58,0,0,0,5,0v-20A2.3,2.3,0,0,0,371.38,166.75Z" transform="translate(-67.24 -165.75)"/></g><g id="Rectangle_90" data-name="Rectangle 90"><path class="cls-2" d="M389,188.75h7.54c2.08,0,3.77,1.34,3.77,3h0c0,1.66-1.69,3-3.77,3H389c-2.09,0-3.77-1.34-3.77-3h0C385.21,190.09,386.89,188.75,389,188.75Z" transform="translate(-67.24 -165.75)"/><path class="cls-2" d="M396.52,194.75H389c-2.08,0-3.77-1.35-3.77-3s1.69-3,3.77-3h7.54c2.08,0,3.77,1.35,3.77,3S398.6,194.75,396.52,194.75Zm-7.54-5a2.05,2.05,0,1,0,0,4h7.54a2.05,2.05,0,1,0,0-4Z" transform="translate(-67.24 -165.75)"/></g><g id="Rectangle_91" data-name="Rectangle 91"><path class="cls-3" d="M392.75,165.75h0c2.08,0,3.77,1.34,3.77,3v20c0,1.66-1.69,3-3.77,3h0c-2.09,0-3.77-1.34-3.77-3v-20C389,167.09,390.66,165.75,392.75,165.75Z" transform="translate(-67.24 -165.75)"/><path class="cls-2" d="M392.75,191.75c-2.08,0-3.77-1.35-3.77-3v-20c0-1.65,1.69-3,3.77-3s3.77,1.35,3.77,3v20C396.52,190.4,394.83,191.75,392.75,191.75Zm0-25a2.31,2.31,0,0,0-2.52,2v20a2.58,2.58,0,0,0,5,0v-20A2.31,2.31,0,0,0,392.75,166.75Z" transform="translate(-67.24 -165.75)"/></g><g id="Rectangle_92" data-name="Rectangle 92"><path class="cls-2" d="M410.34,188.75h7.54c2.08,0,3.77,1.34,3.77,3h0c0,1.66-1.69,3-3.77,3h-7.54c-2.08,0-3.77-1.34-3.77-3h0C406.57,190.09,408.26,188.75,410.34,188.75Z" transform="translate(-67.24 -165.75)"/><path class="cls-2" d="M417.88,194.75h-7.54c-2.08,0-3.77-1.35-3.77-3s1.69-3,3.77-3h7.54c2.08,0,3.77,1.35,3.77,3S420,194.75,417.88,194.75Zm-7.54-5a2.05,2.05,0,1,0,0,4h7.54a2.05,2.05,0,1,0,0-4Z" transform="translate(-67.24 -165.75)"/></g><g id="Rectangle_93" data-name="Rectangle 93"><path class="cls-3" d="M414.11,165.75h0c2.08,0,3.77,1.34,3.77,3v20c0,1.66-1.69,3-3.77,3h0c-2.08,0-3.77-1.34-3.77-3v-20C410.34,167.09,412,165.75,414.11,165.75Z" transform="translate(-67.24 -165.75)"/><path class="cls-2" d="M414.11,191.75c-2.08,0-3.77-1.35-3.77-3v-20c0-1.65,1.69-3,3.77-3s3.77,1.35,3.77,3v20C417.88,190.4,416.19,191.75,414.11,191.75Zm0-25a2.31,2.31,0,0,0-2.51,2v20a2.58,2.58,0,0,0,5,0v-20A2.31,2.31,0,0,0,414.11,166.75Z" transform="translate(-67.24 -165.75)"/></g><g id="Rectangle_94" data-name="Rectangle 94"><path class="cls-2" d="M431.71,188.75h7.54c2.08,0,3.77,1.34,3.77,3h0c0,1.66-1.69,3-3.77,3h-7.54c-2.09,0-3.77-1.34-3.77-3h0C427.94,190.09,429.62,188.75,431.71,188.75Z" transform="translate(-67.24 -165.75)"/><path class="cls-2" d="M439.25,194.75h-7.54c-2.08,0-3.77-1.35-3.77-3s1.69-3,3.77-3h7.54c2.08,0,3.77,1.35,3.77,3S441.33,194.75,439.25,194.75Zm-7.54-5a2.05,2.05,0,1,0,0,4h7.54a2.05,2.05,0,1,0,0-4Z" transform="translate(-67.24 -165.75)"/></g><g id="Rectangle_95" data-name="Rectangle 95"><path class="cls-3" d="M435.48,165.75h0c2.08,0,3.77,1.34,3.77,3v20c0,1.66-1.69,3-3.77,3h0c-2.09,0-3.77-1.34-3.77-3v-20C431.71,167.09,433.39,165.75,435.48,165.75Z" transform="translate(-67.24 -165.75)"/><path class="cls-2" d="M435.48,191.75c-2.08,0-3.77-1.35-3.77-3v-20c0-1.65,1.69-3,3.77-3s3.77,1.35,3.77,3v20C439.25,190.4,437.56,191.75,435.48,191.75Zm0-25a2.31,2.31,0,0,0-2.52,2v20a2.58,2.58,0,0,0,5,0v-20A2.31,2.31,0,0,0,435.48,166.75Z" transform="translate(-67.24 -165.75)"/></g><g id="Rectangle_96" data-name="Rectangle 96"><path class="cls-2" d="M453.07,188.75h7.54c2.09,0,3.77,1.34,3.77,3h0c0,1.66-1.68,3-3.77,3h-7.54c-2.08,0-3.77-1.34-3.77-3h0C449.3,190.09,451,188.75,453.07,188.75Z" transform="translate(-67.24 -165.75)"/><path class="cls-2" d="M460.61,194.75h-7.54c-2.08,0-3.77-1.35-3.77-3s1.69-3,3.77-3h7.54c2.08,0,3.77,1.35,3.77,3S462.69,194.75,460.61,194.75Zm-7.54-5a2.05,2.05,0,1,0,0,4h7.54a2.05,2.05,0,1,0,0-4Z" transform="translate(-67.24 -165.75)"/></g><g id="Rectangle_97" data-name="Rectangle 97"><path class="cls-3" d="M456.84,165.75h0c2.08,0,3.77,1.34,3.77,3v20c0,1.66-1.69,3-3.77,3h0c-2.08,0-3.77-1.34-3.77-3v-20C453.07,167.09,454.76,165.75,456.84,165.75Z" transform="translate(-67.24 -165.75)"/><path class="cls-2" d="M456.84,191.75c-2.08,0-3.77-1.35-3.77-3v-20c0-1.65,1.69-3,3.77-3s3.77,1.35,3.77,3v20C460.61,190.4,458.92,191.75,456.84,191.75Zm0-25a2.31,2.31,0,0,0-2.51,2v20a2.58,2.58,0,0,0,5,0v-20A2.31,2.31,0,0,0,456.84,166.75Z" transform="translate(-67.24 -165.75)"/></g><g id="Rectangle_100" data-name="Rectangle 100"><path class="cls-2" d="M86.09,188.75h7.54c2.08,0,3.77,1.34,3.77,3h0c0,1.66-1.69,3-3.77,3H86.09c-2.08,0-3.77-1.34-3.77-3h0C82.32,190.09,84,188.75,86.09,188.75Z" transform="translate(-67.24 -165.75)"/><path class="cls-2" d="M93.63,194.75H86.09c-2.08,0-3.77-1.35-3.77-3s1.69-3,3.77-3h7.54c2.08,0,3.77,1.35,3.77,3S95.71,194.75,93.63,194.75Zm-7.54-5a2.05,2.05,0,1,0,0,4h7.54a2.05,2.05,0,1,0,0-4Z" transform="translate(-67.24 -165.75)"/></g><g id="Rectangle_101" data-name="Rectangle 101"><path class="cls-3" d="M89.86,165.75h0c2.08,0,3.77,1.34,3.77,3v20c0,1.66-1.69,3-3.77,3h0c-2.08,0-3.77-1.34-3.77-3v-20C86.09,167.09,87.78,165.75,89.86,165.75Z" transform="translate(-67.24 -165.75)"/><path class="cls-2" d="M89.86,191.75c-2.08,0-3.77-1.35-3.77-3v-20c0-1.65,1.69-3,3.77-3s3.77,1.35,3.77,3v20C93.63,190.4,91.94,191.75,89.86,191.75Zm0-25a2.3,2.3,0,0,0-2.51,2v20a2.58,2.58,0,0,0,5,0v-20A2.3,2.3,0,0,0,89.86,166.75Z" transform="translate(-67.24 -165.75)"/></g></svg>