<svg xmlns="http://www.w3.org/2000/svg" viewBox="0 0 52.36 46.95"><defs><style>.cls-1{fill:#fff;}.cls-1,.cls-2{stroke:#515151;stroke-miterlimit:10;stroke-width:2px;}.cls-2{fill:none;}.cls-3{fill:#515151;}</style></defs><title>kokkehat</title><g id="Lag_2" data-name="Lag 2"><g id="Lag_1-2" data-name="Lag 1"><path class="cls-1" d="M11.41,25.94V46H40.67V26.56a13.17,13.17,0,0,0,2.44-.51,12.8,12.8,0,0,0,4-2.1,10.05,10.05,0,0,0,3.94-5.45,10.36,10.36,0,0,0-.28-5.65A11.28,11.28,0,0,0,47.33,7.5a9,9,0,0,0-5.82-2.3,9.14,9.14,0,0,0-6.47,3,9.69,9.69,0,0,0-1.88-4,8.56,8.56,0,0,0-5.15-3,8.71,8.71,0,0,0-5.44.52,9.17,9.17,0,0,0-4.22,3.77,9.9,9.9,0,0,0-1,2.52,9.73,9.73,0,0,0-3.47-2.2,9.49,9.49,0,0,0-7.78.73A10,10,0,0,0,1.56,12a11.87,11.87,0,0,0,.37,8.17A9.85,9.85,0,0,0,11.41,25.94Z"/><line class="cls-2" x1="11.27" y1="35.49" x2="40.54" y2="35.49"/><path class="cls-3" d="M18.68,25.48a1,1,0,0,1-1.48-.17,13.32,13.32,0,0,1-2.47-9.48,1,1,0,0,1,1.21-.89h0A1,1,0,0,1,16.73,16,11.3,11.3,0,0,0,17,20.19a11.49,11.49,0,0,0,1.87,4,1,1,0,0,1-.16,1.32Z"/><path class="cls-3" d="M33.68,25.48h0a1,1,0,0,1-.16-1.32,11.49,11.49,0,0,0,1.87-4A11.3,11.3,0,0,0,35.63,16a1,1,0,0,1,.79-1.07h0a1,1,0,0,1,1.2.89,13.19,13.19,0,0,1-2.47,9.48A1,1,0,0,1,33.68,25.48Z"/><rect class="cls-3" x="25.18" y="14.4" width="2" height="11.11" rx="1"/></g></g></svg>