<svg xmlns="http://www.w3.org/2000/svg" viewBox="0 0 32.92 48.97"><defs><style>.cls-1,.cls-3{fill:#fff;}.cls-1{stroke:#4e4c4c;stroke-width:2px;}.cls-2{fill:#4e4c4c;}</style></defs><title>køleskab</title><g id="Lag_2" data-name="Lag 2"><g id="Lag_1-2" data-name="Lag 1"><g id="Rectangle_159" data-name="Rectangle 159"><path class="cls-1" d="M5.24,1H27.69C30,1,31.92,2.48,31.92,4.3V44.67c0,1.83-1.89,3.3-4.23,3.3H5.24C2.9,48,1,46.5,1,44.67V4.3C1,2.48,2.9,1,5.24,1Z"/><path class="cls-1" d="M5.24,1.32H27.69c2.11,0,3.82,1.34,3.82,3V44.67c0,1.65-1.71,3-3.82,3H5.24c-2.12,0-3.83-1.33-3.83-3V4.3C1.41,2.66,3.12,1.32,5.24,1.32Z"/></g><rect class="cls-2" x="1.41" y="15.86" width="30.1" height="1.87"/><line class="cls-3" x1="25.68" y1="6.47" x2="25.68" y2="11.37"/><rect class="cls-2" x="24.46" y="20.64" width="2.42" height="22.65" rx="1.21"/><rect class="cls-2" x="24.46" y="5.68" width="2.42" height="7.48" rx="1.21"/></g></g></svg>