<svg xmlns="http://www.w3.org/2000/svg" viewBox="0 0 166.48 74.47"><defs><style>.cls-1{fill:#4f4d4d;}.cls-2{fill:none;}.cls-3{fill:#fff;}</style></defs><title>logolo</title><g id="Lag_2" data-name="Lag 2"><g id="Lag_1-2" data-name="Lag 1"><polygon class="cls-1" points="166.48 74.47 5.89 74.47 0 43.07 160.77 43.07 166.48 74.47"/><path class="cls-1" d="M20,4.54H13.38L12.29,17.07h5.95L17.89,21h-6l-1.4,16.09H5.93L9.12.6H20.35Z"/><path class="cls-1" d="M32.11.6H42.77L45.4,3.48,44.07,18.65,41.3,21.2l1.49,15.89H38.33L36.86,21.53h-2L33.53,37.09H28.92Zm7.51,16.23,1-11.43-.88-1H36.38L35.21,17.79h3.37Z"/><path class="cls-1" d="M106.5,3.48l-2.69,30.73-3.13,2.88H89.88L93.07.6h10.8ZM99.38,32.19,101.71,5.5l-.87-1H97.33l-2.5,28.61h3.5Z"/><path class="cls-1" d="M119,3.48,122.11.6h7.54l2.62,2.88-.67,7.73H127l.5-5.71-.88-1h-2.16l-1,1-2.34,26.69.88,1h2.16l1-1,.88-10h-2.31l.37-4.13H131l-1.41,16.13-3.14,2.88h-7.53l-2.63-2.88Z"/><path class="cls-1" d="M145.05.6h11.38l-.35,3.94h-6.76l-1.06,12.1h5.9l-.34,3.93h-5.91l-1.1,12.58h6.87l-.35,3.94H141.86Z"/><line class="cls-2" x1="74.43" y1="4.51" x2="74.12" y2="8.02"/><path class="cls-1" d="M57.45,37.72a14.31,14.31,0,0,1-1.94-1.8l-1.63-1.54q1.3-17,2.59-33.88H78.36a3.4,3.4,0,0,1,1.56,1.91,3.24,3.24,0,0,1,.13,1.1c-9.74-.23-16.86-.32-18.21-.28a3.48,3.48,0,0,0-1.7.5,3.23,3.23,0,0,0-.93,1.14c-.87,1.8-2.46,28.91-2.56,30.76l.16,1C57.4,37.49,57.49,37.69,57.45,37.72Z"/><path class="cls-1" d="M57.42,38.26c-.27,0-.62-.34-1.57-1.26l-.72-.7-1.62-1.55-.16-.15L56,0H78.64l.14.17c.66.74,1.17,1.4,1.55,1.9a6.2,6.2,0,0,1,.85,1.43c.08.18.56,1.35.29,1.55-.09.07-.39.14-1.64-1-9.35-.22-16.62-.32-18-.28a3,3,0,0,0-1.42.42h0a2.64,2.64,0,0,0-.71.9C59.06,6.33,57.84,24,57.16,35.57l.14.88c.65.89.91,1.27.47,1.64A.6.6,0,0,1,57.42,38.26Zm-3-4.11,1.47,1.4.25.25v-.15c.28-4.85,1.73-29.12,2.62-31a3.76,3.76,0,0,1,1.11-1.36,4.11,4.11,0,0,1,2-.6c1.4,0,8.59,0,17.85.27l-.21-.26C78.92,2,78.43,1.44,78.08,1H57Z"/><g id="Rectangle_159" data-name="Rectangle 159"><path class="cls-3" d="M62.19,3.12H78.08a2.5,2.5,0,0,1,2.76,2.43L78.23,35.33a3.06,3.06,0,0,1-3.18,2.43H59.16c-1.63,0-2.87-1.1-2.76-2.43L59,5.55A3.07,3.07,0,0,1,62.19,3.12Z"/><path class="cls-1" d="M75.05,38.26H59.16a3.46,3.46,0,0,1-2.58-1,2.5,2.5,0,0,1-.68-1.92L58.51,5.51a3.56,3.56,0,0,1,3.68-2.89H78.08a3.5,3.5,0,0,1,2.58,1.06,2.44,2.44,0,0,1,.67,1.92l-2.6,29.78A3.55,3.55,0,0,1,75.05,38.26ZM62.19,3.62a2.6,2.6,0,0,0-2.69,2L56.9,35.38a1.48,1.48,0,0,0,.41,1.15,2.48,2.48,0,0,0,1.85.73H75.05a2.57,2.57,0,0,0,2.68-2L80.34,5.51a1.49,1.49,0,0,0-.42-1.15,2.44,2.44,0,0,0-1.84-.74Z"/><path class="cls-1" d="M75,38.26H59.11c-1.91,0-3.34-1.32-3.2-2.93l2.6-29.78a3.59,3.59,0,0,1,3.72-2.92H78.12c1.91,0,3.35,1.31,3.21,2.92L78.72,35.33A3.59,3.59,0,0,1,75,38.26ZM62.14,3.62A2.53,2.53,0,0,0,59.5,5.55L56.89,35.33c-.09,1.05,1,1.94,2.31,1.94H75.09a2.54,2.54,0,0,0,2.65-1.94l2.6-29.78c.1-1-1-1.93-2.3-1.93Z"/><path class="cls-1" d="M75,38.76H59.11a3.92,3.92,0,0,1-2.91-1.2,3,3,0,0,1-.79-2.27L58,5.51a4.09,4.09,0,0,1,4.21-3.38H78.12A4,4,0,0,1,81,3.33a3,3,0,0,1,.79,2.27L79.22,35.38A4.09,4.09,0,0,1,75,38.76ZM56.4,35.7a2,2,0,0,0,.53,1.18,2.82,2.82,0,0,0,1.69.84A2.88,2.88,0,0,1,57,36.85,2.17,2.17,0,0,1,56.4,35.7ZM62.14,4.12A2.06,2.06,0,0,0,60,5.6L57.39,35.38a1.07,1.07,0,0,0,.3.8,2.06,2.06,0,0,0,1.51.59H75.09c1.08,0,2.08-.69,2.15-1.48l2.6-29.78a1,1,0,0,0-.29-.8A2.07,2.07,0,0,0,78,4.12Zm16.47-1A2.88,2.88,0,0,1,80.28,4a2.09,2.09,0,0,1,.55,1.16A1.93,1.93,0,0,0,80.3,4,2.82,2.82,0,0,0,78.61,3.16Z"/><path class="cls-3" d="M62.16,3.42h15.9c1.48,0,2.6,1,2.49,2.21L77.94,35.4a2.79,2.79,0,0,1-2.88,2.22H59.17A2.76,2.76,0,0,1,57.33,37a1.83,1.83,0,0,1-.62-1,1.73,1.73,0,0,1,0-.54l2.6-29.77A2.74,2.74,0,0,1,62.16,3.42Z"/><path class="cls-1" d="M75.06,38.12H59.17A3.26,3.26,0,0,1,57,37.36,2.32,2.32,0,0,1,56.22,36a2.21,2.21,0,0,1,0-.68l2.6-29.78a3.24,3.24,0,0,1,3.38-2.66h15.9a3.19,3.19,0,0,1,2.37,1A2.28,2.28,0,0,1,81,5.67l-2.6,29.78A3.27,3.27,0,0,1,75.06,38.12ZM62.16,3.92a2.27,2.27,0,0,0-2.38,1.75l-2.6,29.78a1,1,0,0,0,0,.39,1.35,1.35,0,0,0,.46.77,2.31,2.31,0,0,0,1.51.51H75.06a2.32,2.32,0,0,0,2.38-1.76L80.05,5.58a1.33,1.33,0,0,0-.36-1,2.18,2.18,0,0,0-1.63-.63Z"/><path class="cls-1" d="M75,38.11H59.13A3.25,3.25,0,0,1,57,37.36a2.27,2.27,0,0,1-.76-1.28,2.57,2.57,0,0,1,0-.68L58.79,5.63A3.26,3.26,0,0,1,62.2,2.92H78.1c1.78,0,3.07,1.19,2.94,2.71L78.44,35.4A3.36,3.36,0,0,1,75,38.11ZM62.12,3.91a2.19,2.19,0,0,0-2.34,1.72L57.17,35.4a1.76,1.76,0,0,0,0,.4,1.4,1.4,0,0,0,.48.8,2.31,2.31,0,0,0,1.54.52h15.9a2.25,2.25,0,0,0,2.34-1.72l2.6-29.77c.09-1-.81-1.72-2-1.72Z"/><path class="cls-1" d="M75,38.61H59.12a3.74,3.74,0,0,1-2.47-.87,2.74,2.74,0,0,1-.92-1.56,2.81,2.81,0,0,1,0-.82l2.6-29.78A3.77,3.77,0,0,1,62.2,2.42H78.1a3.65,3.65,0,0,1,2.71,1.1,2.8,2.8,0,0,1,.73,2.15L78.93,35.45A3.86,3.86,0,0,1,75,38.61ZM56.68,35.78l0,.2a1.8,1.8,0,0,0,.6,1,2.49,2.49,0,0,0,1.33.58,2.57,2.57,0,0,1-1.3-.6,2,2,0,0,1-.64-1.07A.5.5,0,0,0,56.68,35.78ZM62.12,4.41a1.74,1.74,0,0,0-1.85,1.26l-2.6,29.78a1,1,0,0,0,0,.25.93.93,0,0,0,.32.52,1.82,1.82,0,0,0,1.21.4h15.9c.92,0,1.78-.59,1.84-1.26L79.56,5.58a.87.87,0,0,0-.25-.68A1.73,1.73,0,0,0,78,4.41Zm16.47-1a2.55,2.55,0,0,1,1.46.76,1.93,1.93,0,0,1,.49,1,1.72,1.72,0,0,0-.47-1.06A2.5,2.5,0,0,0,78.59,3.46Z"/></g><polygon class="cls-1" points="58.54 14.1 79.81 14.1 79.68 15.51 58.42 15.51 58.54 14.1"/><line class="cls-2" x1="76.31" y1="7.18" x2="76" y2="10.79"/><path class="cls-1" d="M68.11,26.92h0a9.71,9.71,0,0,1-7.5-3.57A9.93,9.93,0,0,1,59,14.51l.11-.39h20l.06.37a10.69,10.69,0,0,1-3,8.85A11.8,11.8,0,0,1,68.11,26.92ZM59.87,15.1a8.88,8.88,0,0,0,1.52,7.59,8.8,8.8,0,0,0,6.8,3.24h0a10.73,10.73,0,0,0,7.36-3.24,9.66,9.66,0,0,0,2.7-7.59Z"/><path class="cls-1" d="M68.11,27.17h0a9.93,9.93,0,0,1-7.69-3.67c-3-3.7-1.88-8.2-1.62-9.06l.17-.57H79.35l.1.59a11,11,0,0,1-3,9.06A12.09,12.09,0,0,1,68.11,27.17Zm-8.78-12.8-.07.21a9.74,9.74,0,0,0,1.54,8.61,9.44,9.44,0,0,0,7.3,3.48v0a11.55,11.55,0,0,0,8-3.5A10.45,10.45,0,0,0,79,14.53l0-.16ZM68.2,26.18h0A8.79,8.79,0,0,1,59.63,15l0-.19H78.49l0,.23a9.86,9.86,0,0,1-2.77,7.78A11,11,0,0,1,68.2,26.18ZM60.07,15.35a8.28,8.28,0,0,0,8.12,10.33h0a10.41,10.41,0,0,0,7.19-3.17A9.35,9.35,0,0,0,78,15.35Z"/><path class="cls-1" d="M67.37,11.21,66.69,11a1.37,1.37,0,0,0-.12-1.19,1.16,1.16,0,0,0-.91-.46h0a1.39,1.39,0,0,0-.93.4A1.61,1.61,0,0,0,64.26,11l-.73.15a2.4,2.4,0,0,1,.7-2,2.23,2.23,0,0,1,1.49-.62h0a1.87,1.87,0,0,1,1.46.74A2,2,0,0,1,67.37,11.21Z"/><path class="cls-1" d="M67.52,11.52l-1.16-.37.09-.25a1.05,1.05,0,0,0-.08-.94.88.88,0,0,0-.71-.36,1.15,1.15,0,0,0-.77.33A1.39,1.39,0,0,0,64.51,11l0,.23-1.23.25,0-.27a2.62,2.62,0,0,1,.78-2.17,2.48,2.48,0,0,1,1.66-.69,2.11,2.11,0,0,1,1.67.85,2.29,2.29,0,0,1,.21,2.1ZM67,10.83l.22.07A1.74,1.74,0,0,0,67,9.5a1.6,1.6,0,0,0-1.26-.64,2,2,0,0,0-1.33.55,2.09,2.09,0,0,0-.63,1.47l.24,0a1.74,1.74,0,0,1,.54-1.27,1.64,1.64,0,0,1,1.1-.47,1.42,1.42,0,0,1,1.13.57A1.48,1.48,0,0,1,67,10.83Z"/><path class="cls-1" d="M75.53,11.21,74.85,11a1.33,1.33,0,0,0-.11-1.18,1.21,1.21,0,0,0-.92-.46h0a1.42,1.42,0,0,0-.94.4A1.55,1.55,0,0,0,72.43,11l-.74.15a2.4,2.4,0,0,1,.7-2,2.23,2.23,0,0,1,1.49-.62h0a1.82,1.82,0,0,1,1.46.74A2,2,0,0,1,75.53,11.21Z"/><path class="cls-1" d="M75.68,11.52l-1.17-.38.11-.25a1,1,0,0,0-.09-.93.89.89,0,0,0-.71-.36,1.18,1.18,0,0,0-.77.33A1.38,1.38,0,0,0,72.67,11l0,.23-1.22.26,0-.27a2.64,2.64,0,0,1,.78-2.17,2.48,2.48,0,0,1,1.66-.69,2.12,2.12,0,0,1,1.68.85,2.35,2.35,0,0,1,.21,2.1Zm-.53-.69.22.07a1.7,1.7,0,0,0-.22-1.4,1.58,1.58,0,0,0-1.26-.64,2,2,0,0,0-1.32.55,2.09,2.09,0,0,0-.64,1.48l.24-.06a1.78,1.78,0,0,1,.54-1.26,1.67,1.67,0,0,1,1.11-.47,1.41,1.41,0,0,1,1.12.57A1.48,1.48,0,0,1,75.15,10.83Z"/><path class="cls-3" d="M32.31,51.12v5.79l-2.07,1.38,2.07,1.38v6.16l-2.07,1.38H22.58V49.74h7.66ZM29,57V52l-.69-.46H25.89v5.84h2.42Zm-3.11,2.3v6.07h2.42l.69-.46V59.71l-.69-.45Z"/><path class="cls-3" d="M57.36,67.21H51.8l-2.07-1.38V49.74h3.32V64.87l.69.46h1.69l.69-.46V49.74h3.31V65.83Z"/><path class="cls-3" d="M86.86,51.12V65.83l-2.07,1.38H77V49.74h7.77ZM83.54,64.87V52.08l-.69-.46H80.33V65.33h2.52Z"/><path class="cls-3" d="M114.21,51.12V65.83l-2.07,1.38h-7.76V49.74h7.76ZM110.9,64.87V52.08l-.69-.46h-2.52V65.33h2.52Z"/><path class="cls-3" d="M134.57,67.21V61.49l-4-11.75h3.55l2.07,8.57,2.07-8.57h3.55l-4,11.75v5.72Z"/></g></g></svg>