<svg xmlns="http://www.w3.org/2000/svg" viewBox="0 0 36.18 43.47"><defs><style>.cls-1{fill:#515151;}.cls-2{fill:none;stroke:#f6f6f6;stroke-miterlimit:10;stroke-width:2px;}.cls-3{fill:#f6f6f6;}</style></defs><title>shoplist-icon</title><g id="Lag_2" data-name="Lag 2"><g id="Lag_1-2" data-name="Lag 1"><path class="cls-1" d="M13.07,43.27a100.5,100.5,0,0,1-11.7,0,1.48,1.48,0,0,1-.9-.5,2.49,2.49,0,0,1-.39-1.1C0,41.17,0,26.17.08,6.07A6.09,6.09,0,0,1,1,3.67a4,4,0,0,1,2.11-1.6c9.6,0,19.2,0,28.8-.1.7-.1,2.4-.4,3.3.6a3.29,3.29,0,0,1,.6,1.9c.3,5,.4,7.5.4,7.9,0,2.4.1,3.2-.5,3.7-.4.4-.9.4-3.2.3-.8,0-2-.1-3.3-.1v27.2C23.77,43.37,18.47,43.27,13.07,43.27Z"/><path class="cls-2" d="M30.18,16.35v-11a5.43,5.43,0,0,1,1.09-2.4A14.46,14.46,0,0,1,32.6,1.62l1-.88"/><path class="cls-3" d="M23.64,10.87H5.24a.92.92,0,0,1-.9-1h0a.92.92,0,0,1,.9-1h18.4a.92.92,0,0,1,.9,1h0A1,1,0,0,1,23.64,10.87Z"/><path class="cls-3" d="M23.64,17.77H5.24a.92.92,0,0,1-.9-1h0a.92.92,0,0,1,.9-1h18.4a.92.92,0,0,1,.9,1h0A1,1,0,0,1,23.64,17.77Z"/><path class="cls-3" d="M23.74,24.27H5.34a.92.92,0,0,1-.9-1h0a.92.92,0,0,1,.9-1h18.4a.92.92,0,0,1,.9,1h0A.92.92,0,0,1,23.74,24.27Z"/><path class="cls-3" d="M23.74,31.17H5.34a.92.92,0,0,1-.9-1h0a.92.92,0,0,1,.9-1h18.4a.92.92,0,0,1,.9,1h0A.92.92,0,0,1,23.74,31.17Z"/><path class="cls-3" d="M23.74,38.07H5.34a.92.92,0,0,1-.9-1h0a.92.92,0,0,1,.9-1h18.4a.92.92,0,0,1,.9,1h0A.92.92,0,0,1,23.74,38.07Z"/></g></g></svg>