<svg id="Layer_1" data-name="Layer 1" xmlns="http://www.w3.org/2000/svg" viewBox="0 0 98.07 111.22"><defs><style>.cls-1{fill:#b7b7b7;}</style></defs><title>skraldespandlys</title><g id="Path_29" data-name="Path 29"><path class="cls-1" d="M326.59,269.28H261.86a2.59,2.59,0,0,1-2.57-2.31l-9.47-91.35a2.58,2.58,0,0,1,2.56-2.84h82a2.57,2.57,0,0,1,2.57,2.79l-7.77,91.35A2.58,2.58,0,0,1,326.59,269.28Zm-62.41-5.15h60l7.33-86.2H255.24Z" transform="translate(-244.14 -158.07)"/></g><g id="Rectangle_104" data-name="Rectangle 104"><path class="cls-1" d="M308.77,176.06H278.82a2.57,2.57,0,0,1-2.58-2.58V160.64a2.57,2.57,0,0,1,2.58-2.57h29.95a2.57,2.57,0,0,1,2.58,2.57v12.84A2.57,2.57,0,0,1,308.77,176.06ZM281.4,170.9h24.8v-7.68H281.4Z" transform="translate(-244.14 -158.07)"/></g><g id="Path_30" data-name="Path 30"><path class="cls-1" d="M339.63,177.93H246.72a2.58,2.58,0,1,1,0-5.15h92.91a2.58,2.58,0,1,1,0,5.15Z" transform="translate(-244.14 -158.07)"/></g><g id="Line_91" data-name="Line 91"><path class="cls-1" d="M276.68,259.51a2.57,2.57,0,0,1-2.57-2.41l-4.28-64.19a2.58,2.58,0,0,1,5.14-.34l4.28,64.19a2.57,2.57,0,0,1-2.4,2.74Z" transform="translate(-244.14 -158.07)"/></g><g id="Line_92" data-name="Line 92"><path class="cls-1" d="M293.8,259.51a2.57,2.57,0,0,1-2.58-2.58V192.74a2.58,2.58,0,1,1,5.15,0v64.19A2.57,2.57,0,0,1,293.8,259.51Z" transform="translate(-244.14 -158.07)"/></g><g id="Line_93" data-name="Line 93"><path class="cls-1" d="M310.92,259.51h-.18a2.58,2.58,0,0,1-2.4-2.74l4.28-64.19a2.58,2.58,0,0,1,5.15.34l-4.28,64.19A2.58,2.58,0,0,1,310.92,259.51Z" transform="translate(-244.14 -158.07)"/></g></svg>