<svg id="Layer_1" data-name="Layer 1" xmlns="http://www.w3.org/2000/svg" viewBox="0 0 98.1 111.2"><defs><style>.cls-1{fill:#818181;}</style></defs><title>skraldespand</title><g id="Path_29" data-name="Path 29"><path class="cls-1" d="M326.6,269.3H261.9a2.68,2.68,0,0,1-2.6-2.3l-9.5-91.3a2.81,2.81,0,0,1,.6-2,2.84,2.84,0,0,1,1.9-.9h82a2.58,2.58,0,0,1,2.6,2.8l-7.8,91.3A2.52,2.52,0,0,1,326.6,269.3Zm-62.4-5.2h60l7.3-86.2H255.2Z" transform="translate(-244.1 -158.1)"/></g><g id="Rectangle_104" data-name="Rectangle 104"><path class="cls-1" d="M308.8,176.1h-30a2.65,2.65,0,0,1-2.6-2.6V160.7a2.65,2.65,0,0,1,2.6-2.6h30a2.65,2.65,0,0,1,2.6,2.6v12.8A2.65,2.65,0,0,1,308.8,176.1Zm-27.4-5.2h24.8v-7.7H281.4Z" transform="translate(-244.1 -158.1)"/></g><g id="Path_30" data-name="Path 30"><path class="cls-1" d="M339.6,177.9H246.7a2.6,2.6,0,0,1,0-5.2h92.9a2.65,2.65,0,0,1,2.6,2.6A2.52,2.52,0,0,1,339.6,177.9Z" transform="translate(-244.1 -158.1)"/></g><g id="Line_91" data-name="Line 91"><path class="cls-1" d="M276.7,259.5a2.61,2.61,0,0,1-2.6-2.4l-4.3-64.2a2.55,2.55,0,1,1,5.1-.3l4.3,64.2a2.56,2.56,0,0,1-2.4,2.7Z" transform="translate(-244.1 -158.1)"/></g><g id="Line_92" data-name="Line 92"><path class="cls-1" d="M293.8,259.5a2.65,2.65,0,0,1-2.6-2.6V192.7a2.6,2.6,0,1,1,5.2,0v64.2A2.58,2.58,0,0,1,293.8,259.5Z" transform="translate(-244.1 -158.1)"/></g><g id="Line_93" data-name="Line 93"><path class="cls-1" d="M310.9,259.5h-.2a2.56,2.56,0,0,1-2.4-2.7l4.3-64.2a2.55,2.55,0,0,1,5.1.3l-4.3,64.2A2.39,2.39,0,0,1,310.9,259.5Z" transform="translate(-244.1 -158.1)"/></g></svg>